<svg xmlns="http://www.w3.org/2000/svg" viewBox="0 0 320 360"><defs><linearGradient id="a" x1="0" x2="1"><stop stop-color="#101e24"/><stop offset=".45" stop-color="#42515a"/><stop offset="1" stop-color="#14242c"/></linearGradient><filter id="s"><feGaussianBlur stdDeviation="7"/></filter></defs><ellipse cx="160" cy="316" rx="61" ry="11" fill="#14262b" opacity=".13" filter="url(#s)"/><path d="M161 89V65c0-34 49-34 49-6 0 23-24 36-48 42" fill="none" stroke="#a6aaa5" stroke-width="7"/><path d="M161 89V65c0-34 49-34 49-6" fill="none" stroke="#e2e4db" stroke-width="3"/><rect x="120" y="89" width="81" height="24" rx="9" fill="#848c87"/><rect x="99" y="106" width="124" height="190" rx="45" fill="url(#a)"/><rect x="106" y="112" width="110" height="176" rx="40" fill="none" stroke="#53626a" stroke-width="1.5"/><circle cx="161" cy="160" r="23" fill="#17242b" stroke="#626e70" stroke-width="2"/><circle cx="161" cy="160" r="13" fill="#c8a96b"/><path d="M142 216h38m-38 9h38m-38 9h38m-30 9h22" stroke="#101a20" stroke-width="4" stroke-linecap="round"/><circle cx="161" cy="268" r="3" fill="#d5e0c7"/></svg>
